# AST/ASF file generated using VICON BodyLanguage
# -----------------------------------------------
:version 1.10
:name VICON
:units
  mass 1.0
  length 0.45
  angle deg
:documentation
   .ast/.asf automatically generated from VICON data using
   VICON BodyBuilder and BodyLanguage model FoxedUp or BRILLIANT.MOD
:root
   order TX TY TZ RX RY RZ
   axis XYZ
   position 0 0 0  
   orientation 0 0 0 
:bonedata
  begin
     id 1 
     name lhipjoint
     direction 0.662698 -0.695252 0.27831 
     length 2.53073 
     axis 0 0 0  XYZ
  end
  begin
     id 2 
     name lfemur
     direction 0.34202 -0.939693 0  
     length 7.16147  
     axis 0 0 20  XYZ
    dof rx ry rz
    limits (-160.0 20.0)
           (-70.0 70.0)
           (-60.0 70.0)
  end
  begin
     id 3 
     name ltibia
     direction 0.34202 -0.939693 0   
     length 7.63967   
     axis 0 0 20   XYZ
    dof rx
    limits (-10.0 170.0)
  end
  begin
     id 4 
     name lfoot
     direction 0.0938457 -0.257721 0.961651   
     length 1.89793   
     axis -90 7.62852e-016 20   XYZ
    dof rx rz
    limits (-45.0 90.0)
           (-70.0 20.0)
  end
  begin
     id 5 
     name ltoes
     direction -0.00116841 -0.0030592 0.999995   
     length 0.955649   
     axis -90 7.62852e-016 20   XYZ
    dof rx
    limits (-90.0 20.0)
  end
  begin
     id 6 
     name rhipjoint
     direction -0.649445 -0.705948 0.282592   
     length 2.49238  
     axis 0 0 0  XYZ 
  end
  begin
     id 7 
     name rfemur
     direction -0.34202 -0.939693 0   
     length 6.90728   
     axis 0 0 -20   XYZ
    dof rx ry rz
    limits (-160.0 20.0)
           (-70.0 70.0)
           (-70.0 60.0)
  end
  begin
     id 8 
     name rtibia
     direction -0.34202 -0.939693 0   
     length 7.72868   
     axis 0 0 -20   XYZ
    dof rx
    limits (-10.0 170.0)
 end
 begin
     id 9 
     name rfoot
     direction -0.0920068 -0.252865 0.963117   
     length 1.97476  
     axis -90 -7.62852e-016 -20   XYZ
    dof rx rz
    limits (-45.0 90.0)
           (-20.0 70.0)
  end
  begin
     id 10 
     name rtoes
     direction 0.000391322 0.00230649 0.999997   
     length 0.992641   
     axis -90 -7.62852e-016 -20   XYZ
    dof rx
    limits (-90.0 20.0)
  end
  begin
     id 11 
     name lowerback
     direction -0.00875327 0.998321 -0.0572635   
     length 2.20024   
     axis 0 0 0   XYZ
    dof rx ry rz
    limits (-20.0 45.0)
           (-30.0 30.0)
           (-30.0 30.0)
  end
  begin
     id 12 
     name upperback
     direction 0.00753931 0.999972 -0.000360425   
     length 2.20538   
     axis 0 0 0   XYZ
    dof rx ry rz
    limits (-20.0 45.0)
           (-30.0 30.0)
           (-30.0 30.0)
  end
  begin
     id 13 
     name thorax
     direction 0.0117767 0.999601 0.0256663   
     length 2.21508   
     axis 0 0 0   XYZ
    dof rx ry rz
    limits (-20.0 45.0)
           (-30.0 30.0)
           (-30.0 30.0)
  end
  begin
     id 14 
     name lowerneck
     direction 0.060228 0.994909 0.0807986   
     length 1.7607   
     axis 0 0 0   XYZ
    dof rx ry rz
    limits (-20.0 45.0)
           (-30.0 30.0)
           (-30.0 30.0)
  end
  begin
     id 15 
     name upperneck
     direction -0.0563647 0.959594 -0.275685   
     length 1.75612   
     axis 0 0 0   XYZ
    dof rx ry rz
    limits (-20.0 45.0)
           (-30.0 30.0)
           (-30.0 30.0)
  end
  begin
     id 16
     name head
     direction -0.0161544 0.99458 -0.102714  
     length 1.79288  
     axis 0 0 0   XYZ
    dof rx ry rz
    limits (-20.0 45.0)
           (-30.0 30.0)
           (-30.0 30.0)
  end
  begin
     id 17 
     name lclavicle
     direction 0.93913 0.332189 -0.087669  
     length 3.52087  
     axis 0 0 0   XYZ
    dof ry rz
    limits (-20.0 10.0)
           (0.0 20.0)
  end
  begin
     id 18 
     name lhumerus
     direction 1 -4.48974e-011 -2.70836e-027   
     length 5.35289   
     axis -180 -30 -90   XYZ
    dof rx ry rz
    limits (-60.0 90.0)
           (-90.0 90.0)
           (-90.0 90.0)
  end
  begin
     id 19
     name lradius
     direction 1 -4.48961e-011 -9.76021e-027   
     length 3.27727   
     axis -180 -30 -90   XYZ
    dof rx
    limits (-10.0 170.0)
  end
  begin
     id 20
     name lwrist
     direction 1 -4.49103e-011 -2.23668e-026   
     length 1.63864   
     axis 1.44924e-014 90 90   XYZ
    dof ry
    limits (-180.0 0.0)
 end
  begin
     id 21 
     name lhand
     direction 1 3.0697e-005 0.000161777   
     length 0.54443   
     axis 2.85318e-014 90 90   XYZ
    dof rx rz
    limits (-90.0 90.0)
           (-45.0 45.0)
  end
  begin
     id 22 
     name lfingers
     direction 1 -4.49027e-011 -8.9447e-026   
     length 0.438912   
     axis 5.70628e-014 90 90   XYZ
    dof rx
    limits (0.0 90.0)
  end
  begin
     id 23
     name lthumb
     direction 0.707058 2.6516e-005 0.707156   
     length 0.630274   
     axis -90 45 -3.53137e-014   XYZ
    dof rx rz
    limits (-45.0 45.0)
           (-45.0 45.0)
  end
  begin
     id 24 
     name rclavicle
     direction -0.95274 0.284984 -0.105215   
     length 3.43401  
     axis 0 0 0   XYZ 
    dof ry rz
    limits (-10.0 20.0)
           (-20.0 0.0)
  end
  begin
     id 25 
     name rhumerus
     direction -0.999999 -0.000575019 -0.00106829  
     length 5.52077   
     axis -180 30 90   XYZ
    dof rx ry rz
    limits (-90.0 60.0)
           (-90.0 90.0)
           (-90.0 90.0)
  end
  begin
     id 26 
     name rradius
     direction -1 -4.4879e-011 -6.35415e-027   
     length 3.32364   
     axis -180 30 90   XYZ
    dof rx
    limits (-10.0 170.0)
  end
  begin
     id 27 
     name rwrist
     direction -1 -4.49048e-011 -9.98542e-027   
     length 1.66182   
     axis 6.32482e-015 -90 -90   XYZ
    dof ry
    limits (-180.0 0.0)
  end
  begin
     id 28
     name rhand
     direction -1 -4.48978e-011 -1.99771e-026   
     length 0.732235   
     axis 1.27479e-014 -90 -90   XYZ
    dof rx rz
    limits (-90.0 90.0)
           (-45.0 45.0)
  end
  begin
     id 29
     name rfingers
     direction -1 -4.49144e-011 -3.99245e-026   
     length 0.590347   
     axis 2.5496e-014 -90 -90   XYZ
    dof rx
    limits (0.0 90.0)
  end
  begin
     id 30
     name rthumb
     direction -0.707107 -6.35121e-011 0.707107   
     length 0.847624   
     axis -90 -45 -2.82974e-014   XYZ
    dof rx rz
    limits (-45.0 45.0)
           (-45.0 45.0)
  end
:hierarchy
  begin
    root lhipjoint rhipjoint lowerback
    lhipjoint lfemur
    lfemur ltibia
    ltibia lfoot
    lfoot ltoes
    rhipjoint rfemur
    rfemur rtibia
    rtibia rfoot
    rfoot rtoes
    lowerback upperback
    upperback thorax
    thorax lowerneck lclavicle rclavicle
    lowerneck upperneck
    upperneck head
    lclavicle lhumerus
    lhumerus lradius
    lradius lwrist
    lwrist lhand lthumb
    lhand lfingers
    rclavicle rhumerus
    rhumerus rradius
    rradius rwrist
    rwrist rhand rthumb
    rhand rfingers
  end

#!OML:ASF G:\Work\Work\Patient Classification 1\Elijah\terrain1\Elijah.ASF
:FULLY-SPECIFIED
:DEGREES
355
root 14.4431 21.849 22.1217 8.18212 1.08753 -4.29656
lowerback 3.22196 0.997028 6.914
upperback 0.894037 1.59722 4.41165
thorax -0.823578 0.789557 0.614482
lowerneck -11.6675 14.3905 12.9392
upperneck 37.0608 23.225 -10.9492
head 19.2225 10.073 -2.2698
rclavicle -5.36719e-015 4.77083e-015
rhumerus -31.0534 -0.799926 -78.5115
rradius 41.74
rwrist -3.85491
rhand -14.6457 20.5391
rfingers 7.12502
rthumb 11.5064 -9.1251
lclavicle -5.36719e-015 4.77083e-015
lhumerus -39.8906 15.435 78.4006
lradius 29.3508
lwrist -3.20048
lhand -11.1981 24.5048
lfingers 7.12502
lthumb 14.8296 53.9542
rfemur 14.0147 -6.29412 27.6805
rtibia 3.49861e-014
rfoot -0.853072 -1.40994
rtoes -13.7684
lfemur -30.2216 -2.0628 -18.6374
ltibia 32.2527
lfoot -10.306 -4.35054
ltoes -9.3817
356
root 14.4602 21.8356 22.2503 7.87914 1.52863 -5.07572
lowerback 2.89063 0.865367 7.83063
upperback 1.22602 1.38539 4.44648
thorax -0.27974 0.704286 0.162538
lowerneck -12.058 14.5205 12.9687
upperneck 36.9503 23.3569 -10.9405
head 19.2852 10.1016 -2.20038
rclavicle 3.57812e-015 3.49861e-014
rhumerus -30.6048 -1.56492 -78.5105
rradius 40.8274
rwrist -3.57577
rhand -14.7529 20.5839
rfingers 7.12502
rthumb 11.4031 -9.08607
lclavicle 3.57812e-015 3.49861e-014
lhumerus -38.8297 15.6241 78.3118
lradius 28.4158
lwrist -3.79509
lhand -11.3422 24.4716
lfingers 7.12502
lthumb 14.6909 53.9311
rfemur 14.7054 -6.63586 28.3431
rtibia 3.18055e-015
rfoot 0.154039 -1.21038
rtoes -14.3549
lfemur -29.7998 -1.99833 -17.9534
ltibia 32.8025
lfoot -10.2464 -4.93808
ltoes -9.97768
357
root 14.4251 21.8356 22.3672 7.5432 0.612467 -4.31116
lowerback 2.92169 1.16162 6.1925
upperback 1.53278 1.71566 4.21557
thorax -0.00626591 0.874683 0.822932
lowerneck -11.9586 14.5902 13.2394
upperneck 36.7253 23.4835 -11.2267
head 19.2653 10.1641 -2.33839
rclavicle 9.34288e-015 -1.11319e-014
rhumerus -30.4812 -2.44785 -78.4397
rradius 40.0349
rwrist -3.09992
rhand -14.9723 20.754
rfingers 7.12502
rthumb 11.1914 -8.9275
lclavicle 9.34288e-015 -1.11319e-014
lhumerus -38.1526 15.7443 78.2648
lradius 27.9015
lwrist -4.17213
lhand -11.7208 24.9414
lfingers 7.12502
lthumb 14.326 54.4272
rfemur 15.3809 -5.88663 27.4559
rtibia -1.59028e-014
rfoot 1.38329 -1.01886
rtoes -15.0699
lfemur -29.1994 -1.38888 -18.7082
ltibia 33.14
lfoot -10.2473 -4.84739
ltoes -9.10089
358
root 14.4345 21.8259 22.4667 7.25943 0.89621 -3.31354
lowerback 3.253 0.971864 4.99929
upperback 1.56375 1.45801 3.92797
thorax -0.192754 0.738787 1.18835
lowerneck -11.8413 14.7234 13.3897
upperneck 36.6114 23.7662 -11.4819
head 19.3133 10.2737 -2.40553
rclavicle -3.37934e-015 1.27222e-014
rhumerus -30.5911 -3.14345 -78.3015
rradius 39.1544
rwrist -2.60739
rhand -15.0304 20.6436
rfingers 7.12502
rthumb 11.1354 -9.04092
lclavicle -3.37934e-015 1.27222e-014
lhumerus -37.7486 16.0258 78.1918
lradius 27.2985
lwrist -4.14668
lhand -13.1711 23.9723
lfingers 7.12502
lthumb 12.9282 53.5518
rfemur 16.05 -6.28857 26.1975
rtibia 3.18055e-014
rfoot 2.68846 -0.922341
rtoes -14.2044
lfemur -28.824 -1.53247 -19.9183
ltibia 33.5915
lfoot -10.1533 -5.1098
ltoes -7.71594
359
root 14.4534 21.8106 22.6179 6.99199 1.50949 -3.02725
lowerback 2.97027 0.730589 4.75018
upperback 1.62175 1.10455 3.79009
thorax 0.0172763 0.56556 1.2008
lowerneck -11.5973 14.8068 13.3789
upperneck 36.36 23.9312 -11.6075
head 19.1556 10.347 -2.43215
rclavicle -1.64991e-014 -3.18055e-014
rhumerus -30.8097 -3.87675 -78.1087
rradius 38.0842
rwrist -2.25648
rhand -15.1186 20.5292
rfingers 7.12502
rthumb 11.0504 -9.15993
lclavicle -1.64991e-014 -3.18055e-014
lhumerus -37.3253 16.5043 77.9187
lradius 26.3672
lwrist -4.51371
lhand -14.3505 22.5809
lfingers 7.12502
lthumb 11.7911 52.229
rfemur 12.217 -7.02761 25.5281
rtibia 9.20079
rfoot -0.474864 -0.366611
rtoes -13.5127
lfemur -28.0462 -1.75759 -20.3979
ltibia 33.7452
lfoot -10.1498 -5.56442
ltoes -7.6933
360
root 14.4131 21.8044 22.7355 6.64253 0.920727 -4.24689
lowerback 3.25497 0.948053 5.12043
upperback 1.67468 1.42402 4.11075
thorax -0.0814487 0.724647 1.31205
lowerneck -11.2552 14.8758 13.4697
upperneck 35.987 24.0298 -11.7522
head 18.9104 10.4157 -2.50542
rclavicle 9.34288e-015 1.90833e-014
rhumerus -31.0332 -4.74569 -77.9695
rradius 37.0583
rwrist -1.755
rhand -15.5086 20.8845
rfingers 7.12502
rthumb 10.6742 -8.82436
lclavicle 9.34288e-015 1.90833e-014
lhumerus -36.9818 17.1254 77.4624
lradius 25.7407
lwrist -5.2434
lhand -14.263 22.888
lfingers 7.12502
lthumb 11.8755 52.5312
rfemur 10.6277 -6.42108 26.9615
rtibia 13.2338
rfoot -0.543255 -0.284632
rtoes -13.0835
lfemur -27.5212 -1.04159 -18.8764
ltibia 34.1085
lfoot -10.2874 -5.63943
ltoes -7.99034
361
root 14.4607 21.8061 22.8385 6.91308 1.58585 -3.29562
lowerback 4.11931 0.699263 4.71057
upperback 0.531945 1.21163 3.59168
thorax -1.74443 0.583275 0.988581
lowerneck -9.95705 14.8945 14.1181
upperneck 36.298 24.0752 -11.6188
head 18.8655 10.6128 -2.63386
rclavicle 9.34288e-015 9.54166e-015
rhumerus -33.118 -5.60855 -77.6333
rradius 36.5774
rwrist -1.21505
rhand -15.8421 21.1758
rfingers 7.12502
rthumb 10.3525 -8.54941
lclavicle 9.34288e-015 9.54166e-015
lhumerus -38.4272 16.7624 76.7698
lradius 25.759
lwrist -5.48679
lhand -13.9908 23.4472
lfingers 7.12502
lthumb 12.138 53.0751
rfemur 9.17991 -8.12716 25.3448
rtibia 16.2014
rfoot 0.0429621 1.05348
rtoes -11.5938
lfemur -27.4759 -1.60508 -20.1123
ltibia 34.3867
lfoot -10.4762 -5.83667
ltoes -6.23212
362
root 14.4532 21.8074 22.9992 6.74461 1.15862 -3.70772
lowerback 3.41062 0.822977 4.5769
upperback 0.882245 1.29961 3.7459
thorax -0.991262 0.642114 1.23092
lowerneck -9.85971 15.2025 14.5597
upperneck 36.0508 24.6354 -12.0828
head 19.0115 10.8484 -2.75058
rclavicle -9.74045e-015 3.02153e-014
rhumerus -33.1293 -6.52055 -77.3282
rradius 35.7802
rwrist -0.883738
rhand -15.9872 21.1969
rfingers 7.12502
rthumb 10.2125 -8.53518
lclavicle -9.74045e-015 3.02153e-014
lhumerus -38.0351 17.1611 76.7209
lradius 25.6912
lwrist -5.65975
lhand -14.4617 22.6051
lfingers 7.12502
lthumb 11.6839 52.2593
rfemur 8.18551 -7.86631 25.5462
rtibia 19.1055
rfoot 0.895194 1.33082
rtoes -9.47659
lfemur -26.7967 -1.04358 -19.6911
ltibia 34.5617
lfoot -10.836 -5.93695
ltoes -4.29596
363
root 14.5013 21.8085 23.1364 7.02102 1.64923 -3.52665
lowerback 2.31534 0.683655 4.85371
upperback 1.17205 1.02031 3.54021
thorax -0.0734669 0.519537 0.892904
lowerneck -9.94695 15.4803 14.9476
upperneck 35.6196 25.152 -12.6753
head 19.1139 11.0385 -2.90736
rclavicle -2.18663e-015 3.97569e-015
rhumerus -32.7762 -7.69308 -77.0345
rradius 34.7209
rwrist -0.539041
rhand -16.106 20.8949
rfingers 7.12502
rthumb 10.0979 -8.84283
lclavicle -2.18663e-015 3.97569e-015
lhumerus -37.3992 17.3896 76.8159
lradius 25.8772
lwrist -5.6262
lhand -14.9869 21.5386
lfingers 7.12502
lthumb 11.1774 51.2209
rfemur 6.87788 -9.73847 24.5459
rtibia 21.8981
rfoot 2.00153 3.01493
rtoes -8.88877
lfemur -26.4398 -1.25546 -20.1508
ltibia 34.4564
lfoot -11.1478 -6.1901
ltoes -3.36107
364
root 14.4583 21.8259 23.2808 6.8695 0.569902 -3.34097
lowerback 2.61562 1.05549 3.71665
upperback 0.891951 1.52606 3.49507
thorax -0.549154 0.761585 1.45858
lowerneck -9.39614 15.5631 15.0978
upperneck 35.5581 25.2989 -12.6382
head 18.9871 11.1612 -2.91546
rclavicle -3.37934e-015 2.06736e-014
rhumerus -33.8096 -8.75286 -76.6069
rradius 34.0549
rwrist -0.0466816
rhand -16.1714 20.363
rfingers 7.12502
rthumb 10.0348 -9.37772
lclavicle -3.37934e-015 2.06736e-014
lhumerus -37.7971 17.1721 76.5787
lradius 25.9459
lwrist -5.41723
lhand -14.7875 22.1514
lfingers 7.12502
lthumb 11.3697 51.8232
rfemur 5.66082 -7.99891 24.5634
rtibia 24.5372
rfoot 2.97331 2.33735
rtoes -10.2426
lfemur -25.6408 -0.399621 -20.1865
ltibia 34.3776
lfoot -11.5829 -6.05001
ltoes -3.05766
365
root 14.4763 21.8347 23.4074 6.8316 0.528109 -3.40317
lowerback 2.54823 0.99239 3.78962
upperback 0.847604 1.44097 3.39449
thorax -0.552667 0.718831 1.31765
lowerneck -9.58876 15.7394 14.7776
upperneck 35.552 25.5111 -12.3582
head 18.9406 11.2179 -2.6711
rclavicle 9.14409e-015 7.95139e-015
rhumerus -34.0666 -9.63676 -76.3848
rradius 33.1656
rwrist 0.327445
rhand -16.1756 20.2893
rfingers 7.12502
rthumb 10.0307 -9.45166
lclavicle 9.14409e-015 7.95139e-015
lhumerus -37.4223 17.3563 76.3943
lradius 25.5344
lwrist -5.38386
lhand -14.4732 23.0928
lfingers 7.12502
lthumb 11.6728 52.7476
rfemur 4.32894 -8.34745 24.2521
rtibia 27.4193
rfoot 4.12433 3.06983
rtoes -12.0338
lfemur -24.894 -0.285938 -20.1916
ltibia 34.077
lfoot -11.965 -6.13552
ltoes -2.58918
366
root 14.4735 21.8376 23.4882 6.69213 -0.116982 -3.6131
lowerback 2.86632 1.10976 3.699
upperback 1.08773 1.60162 3.32866
thorax -0.483995 0.800966 1.29215
lowerneck -10.1518 16.1193 14.8199
upperneck 35.3892 26.065 -12.4739
head 19.1449 11.3824 -2.51468
rclavicle -2.28602e-015 3.18055e-015
rhumerus -33.5419 -10.4373 -76.4425
rradius 31.9933
rwrist 0.5636
rhand -16.1723 20.3877
rfingers 7.12502
rthumb 10.0339 -9.3531
lclavicle -2.28602e-015 3.18055e-015
lhumerus -36.6803 17.5193 76.3502
lradius 25.7373
lwrist -5.46148
lhand -13.9577 23.6675
lfingers 7.12502
lthumb 12.1699 53.2935
rfemur 2.90115 -7.50373 24.408
rtibia 30.0197
rfoot 5.4415 3.14289
rtoes -13.6739
lfemur -24.1907 0.159268 -19.9375
ltibia 33.6506
lfoot -12.3584 -5.9076
ltoes -2.33903
367
root 14.4958 21.8445 23.5847 6.57642 -0.484767 -2.73165
lowerback 2.83447 1.08542 2.87095
upperback 1.33262 1.53182 2.90031
thorax -0.225666 0.768412 1.31996
lowerneck -10.1326 16.5903 15.5066
upperneck 35.0209 26.8555 -13.0762
head 19.4013 11.7117 -2.63019
rclavicle 1.93815e-014 9.54166e-015
rhumerus -33.21 -10.9193 -76.6199
rradius 31.0016
rwrist 0.627294
rhand -16.2708 20.1725
rfingers 7.12502
rthumb 9.93888 -9.5729
lclavicle 1.93815e-014 9.54166e-015
lhumerus -36.2861 17.3219 76.3788
lradius 26.856
lwrist -5.82243
lhand -12.0905 25.8617
lfingers 7.12502
lthumb 13.9698 55.3724
rfemur 1.62458 -7.58713 23.0308
rtibia 32.5688
rfoot 6.47222 4.11586
rtoes -14.3298
lfemur -23.3624 0.239519 -21.0163
ltibia 33.2291
lfoot -12.8302 -5.65986
ltoes -2.29212
